<mxfile host="app.diagrams.net" modified="2024-05-14T23:54:04.925Z" agent="Mozilla/5.0 (Windows NT 10.0; Win64; x64) AppleWebKit/537.36 (KHTML, like Gecko) Chrome/124.0.0.0 Safari/537.36" etag="bMZ0BjQ0UCK-y-wQ4lQh" version="24.4.0" type="github">
  <diagram id="C5RBs43oDa-KdzZeNtuy" name="Page-1">
    <mxGraphModel dx="1434" dy="772" grid="1" gridSize="10" guides="1" tooltips="1" connect="1" arrows="1" fold="1" page="1" pageScale="1" pageWidth="827" pageHeight="1169" math="0" shadow="0">
      <root>
        <mxCell id="WIyWlLk6GJQsqaUBKTNV-0" />
        <mxCell id="WIyWlLk6GJQsqaUBKTNV-1" parent="WIyWlLk6GJQsqaUBKTNV-0" />
        <mxCell id="BR_-mPlz3Do0v7NtlhyN-7" style="edgeStyle=orthogonalEdgeStyle;rounded=0;orthogonalLoop=1;jettySize=auto;html=1;entryX=1;entryY=0.5;entryDx=0;entryDy=0;entryPerimeter=0;" edge="1" parent="WIyWlLk6GJQsqaUBKTNV-1" target="BR_-mPlz3Do0v7NtlhyN-39">
          <mxGeometry relative="1" as="geometry">
            <mxPoint x="400" y="440" as="targetPoint" />
            <mxPoint x="610" y="200" as="sourcePoint" />
          </mxGeometry>
        </mxCell>
        <mxCell id="BR_-mPlz3Do0v7NtlhyN-6" style="edgeStyle=orthogonalEdgeStyle;rounded=0;orthogonalLoop=1;jettySize=auto;html=1;entryX=1;entryY=0.5;entryDx=0;entryDy=0;entryPerimeter=0;" edge="1" parent="WIyWlLk6GJQsqaUBKTNV-1" target="BR_-mPlz3Do0v7NtlhyN-39">
          <mxGeometry relative="1" as="geometry">
            <mxPoint x="610" y="310" as="sourcePoint" />
            <mxPoint x="400" y="440" as="targetPoint" />
          </mxGeometry>
        </mxCell>
        <mxCell id="BR_-mPlz3Do0v7NtlhyN-5" style="edgeStyle=orthogonalEdgeStyle;rounded=0;orthogonalLoop=1;jettySize=auto;html=1;entryX=1;entryY=0.5;entryDx=0;entryDy=0;entryPerimeter=0;" edge="1" parent="WIyWlLk6GJQsqaUBKTNV-1" target="BR_-mPlz3Do0v7NtlhyN-39">
          <mxGeometry relative="1" as="geometry">
            <mxPoint x="610" y="420" as="sourcePoint" />
          </mxGeometry>
        </mxCell>
        <mxCell id="BR_-mPlz3Do0v7NtlhyN-25" style="edgeStyle=orthogonalEdgeStyle;rounded=0;orthogonalLoop=1;jettySize=auto;html=1;" edge="1" parent="WIyWlLk6GJQsqaUBKTNV-1" source="BR_-mPlz3Do0v7NtlhyN-3" target="BR_-mPlz3Do0v7NtlhyN-24">
          <mxGeometry relative="1" as="geometry" />
        </mxCell>
        <mxCell id="BR_-mPlz3Do0v7NtlhyN-3" value="Sistema de Reserva de Pasajes" style="whiteSpace=wrap;html=1;aspect=fixed;labelBackgroundColor=none;textShadow=0;labelBorderColor=none;fillColor=#00FF00;" vertex="1" parent="WIyWlLk6GJQsqaUBKTNV-1">
          <mxGeometry x="270" y="270" width="80" height="80" as="geometry" />
        </mxCell>
        <mxCell id="BR_-mPlz3Do0v7NtlhyN-24" value="Reserva Exitosa" style="rhombus;whiteSpace=wrap;html=1;fillColor=#99FFFF;" vertex="1" parent="WIyWlLk6GJQsqaUBKTNV-1">
          <mxGeometry x="150" y="270" width="80" height="80" as="geometry" />
        </mxCell>
        <mxCell id="BR_-mPlz3Do0v7NtlhyN-31" value="" style="group" vertex="1" connectable="0" parent="WIyWlLk6GJQsqaUBKTNV-1">
          <mxGeometry x="610" y="170" width="80" height="100" as="geometry" />
        </mxCell>
        <mxCell id="BR_-mPlz3Do0v7NtlhyN-26" value="" style="shape=actor;whiteSpace=wrap;html=1;fillColor=#FFF4C3;" vertex="1" parent="BR_-mPlz3Do0v7NtlhyN-31">
          <mxGeometry width="40" height="60" as="geometry" />
        </mxCell>
        <mxCell id="BR_-mPlz3Do0v7NtlhyN-30" value="&lt;span style=&quot;color: rgb(0, 0, 0); font-family: Georgia; font-size: 12px; font-style: normal; font-variant-ligatures: normal; font-variant-caps: normal; font-weight: 400; letter-spacing: normal; orphans: 2; text-align: center; text-indent: 0px; text-transform: none; widows: 2; word-spacing: 0px; -webkit-text-stroke-width: 0px; white-space: nowrap; background-color: rgb(251, 251, 251); text-decoration-thickness: initial; text-decoration-style: initial; text-decoration-color: initial; display: inline !important; float: none;&quot;&gt;Usuario&lt;/span&gt;" style="text;whiteSpace=wrap;html=1;" vertex="1" parent="BR_-mPlz3Do0v7NtlhyN-31">
          <mxGeometry y="60" width="80" height="40" as="geometry" />
        </mxCell>
        <mxCell id="BR_-mPlz3Do0v7NtlhyN-33" value="" style="group" vertex="1" connectable="0" parent="WIyWlLk6GJQsqaUBKTNV-1">
          <mxGeometry x="610" y="280" width="80" height="100" as="geometry" />
        </mxCell>
        <mxCell id="BR_-mPlz3Do0v7NtlhyN-34" value="" style="shape=actor;whiteSpace=wrap;html=1;fillColor=#FFF4C3;" vertex="1" parent="BR_-mPlz3Do0v7NtlhyN-33">
          <mxGeometry width="40" height="60" as="geometry" />
        </mxCell>
        <mxCell id="BR_-mPlz3Do0v7NtlhyN-35" value="&lt;span style=&quot;color: rgb(0, 0, 0); font-family: Georgia; font-size: 12px; font-style: normal; font-variant-ligatures: normal; font-variant-caps: normal; font-weight: 400; letter-spacing: normal; orphans: 2; text-align: center; text-indent: 0px; text-transform: none; widows: 2; word-spacing: 0px; -webkit-text-stroke-width: 0px; white-space: nowrap; background-color: rgb(251, 251, 251); text-decoration-thickness: initial; text-decoration-style: initial; text-decoration-color: initial; display: inline !important; float: none;&quot;&gt;Usuario&lt;/span&gt;" style="text;whiteSpace=wrap;html=1;" vertex="1" parent="BR_-mPlz3Do0v7NtlhyN-33">
          <mxGeometry y="60" width="80" height="40" as="geometry" />
        </mxCell>
        <mxCell id="BR_-mPlz3Do0v7NtlhyN-36" value="" style="group" vertex="1" connectable="0" parent="WIyWlLk6GJQsqaUBKTNV-1">
          <mxGeometry x="610" y="380" width="80" height="100" as="geometry" />
        </mxCell>
        <mxCell id="BR_-mPlz3Do0v7NtlhyN-37" value="" style="shape=actor;whiteSpace=wrap;html=1;fillColor=#FFF4C3;" vertex="1" parent="BR_-mPlz3Do0v7NtlhyN-36">
          <mxGeometry width="40" height="60" as="geometry" />
        </mxCell>
        <mxCell id="BR_-mPlz3Do0v7NtlhyN-38" value="&lt;span style=&quot;color: rgb(0, 0, 0); font-family: Georgia; font-size: 12px; font-style: normal; font-variant-ligatures: normal; font-variant-caps: normal; font-weight: 400; letter-spacing: normal; orphans: 2; text-align: center; text-indent: 0px; text-transform: none; widows: 2; word-spacing: 0px; -webkit-text-stroke-width: 0px; white-space: nowrap; background-color: rgb(251, 251, 251); text-decoration-thickness: initial; text-decoration-style: initial; text-decoration-color: initial; display: inline !important; float: none;&quot;&gt;Usuario&lt;/span&gt;" style="text;whiteSpace=wrap;html=1;" vertex="1" parent="BR_-mPlz3Do0v7NtlhyN-36">
          <mxGeometry y="60" width="80" height="40" as="geometry" />
        </mxCell>
        <mxCell id="BR_-mPlz3Do0v7NtlhyN-40" value="" style="edgeStyle=orthogonalEdgeStyle;rounded=0;orthogonalLoop=1;jettySize=auto;html=1;" edge="1" parent="WIyWlLk6GJQsqaUBKTNV-1" source="BR_-mPlz3Do0v7NtlhyN-39" target="BR_-mPlz3Do0v7NtlhyN-3">
          <mxGeometry relative="1" as="geometry" />
        </mxCell>
        <mxCell id="BR_-mPlz3Do0v7NtlhyN-39" value="Interfaz de Usuario" style="strokeWidth=2;html=1;shape=mxgraph.flowchart.multi-document;whiteSpace=wrap;fillColor=#F19C99;" vertex="1" parent="WIyWlLk6GJQsqaUBKTNV-1">
          <mxGeometry x="400" y="280" width="88" height="60" as="geometry" />
        </mxCell>
      </root>
    </mxGraphModel>
  </diagram>
</mxfile>
